<svg width="48" height="48" viewBox="0 0 48 48" fill="none" xmlns="http://www.w3.org/2000/svg">
<rect width="48" height="48" fill="white" fill-opacity="0.01"/>
<path d="M40.7894 45.9859C40.7894 45.9859 35.9005 45.6762 30.816 45.5785C25.8416 45.4603 24.2975 45.5255 20.6675 45.5051C17.0375 45.4848 12.9838 45.4196 8.87714 45.5051C4.77047 45.5907 3.70306 45.5581 3.41381 45.9655C3.03492 46.4951 4.94973 47.0859 14.7764 47.3385C24.6031 47.5911 24.2608 47.6359 26.9986 47.6644C29.606 47.6929 32.5027 47.7214 35.0164 47.6399C37.5301 47.5585 43.3927 47.7418 44.3868 46.8251C45.0264 46.2059 40.7894 45.9859 40.7894 45.9859Z" fill="#E2EBF9"/>
<path d="M43.861 22.6782C43.861 33.8249 34.8248 42.8612 23.6781 42.8612C12.5313 42.8612 3.49512 33.8249 3.49512 22.6782C3.49512 11.5315 12.5313 2.49524 23.6781 2.49524C34.8248 2.49524 43.861 11.5315 43.861 22.6782Z" fill="#454560"/>
<path d="M38.52 13.4259C38.7574 14.7381 38.8773 16.0688 38.8785 17.4022C38.8785 29.5525 29.0288 39.4022 16.8785 39.4022C16.41 39.4022 15.9496 39.4022 15.4893 39.3574C15.7256 39.4674 15.9619 39.5733 16.2022 39.6711C17.3441 40.1531 18.5315 40.5189 19.7467 40.763C20.9537 41.0082 22.1816 41.1365 23.4133 41.1459H23.5152C24.707 41.1444 25.8961 41.0339 27.0678 40.8159C28.268 40.594 29.4431 40.2528 30.5756 39.7974C32.8413 38.8878 34.9065 37.5424 36.6541 35.8374C37.5257 34.988 38.3079 34.0515 38.9885 33.0426C40.364 31.0223 41.3149 28.7436 41.7833 26.3448C42.0169 25.1367 42.1315 23.9086 42.1256 22.6781C42.1256 22.2707 42.1052 21.8633 42.0726 21.4559C41.5471 18.5301 40.329 15.7726 38.52 13.4137" fill="#2D2A3E"/>
<path d="M8.73046 24.707C8.73262 18.7379 12.0321 13.2582 17.3068 10.4638C22.5815 7.66938 28.9684 8.01746 33.9082 11.3685C29.4045 7.41739 23.081 6.28981 17.4891 8.44069C11.8973 10.5916 7.95944 15.6661 7.26441 21.6169C6.56937 27.5678 9.23179 33.4132 14.1775 36.7948C10.7079 33.7364 8.72327 29.3322 8.73046 24.707Z" fill="#69697F"/>
<path d="M31.5371 24.5318C31.5371 28.7507 28.117 32.1707 23.8982 32.1707C19.6793 32.1707 16.2593 28.7507 16.2593 24.5318C16.2593 20.313 19.6793 16.8929 23.8982 16.8929C28.117 16.8929 31.5371 20.313 31.5371 24.5318Z" fill="#1B1934"/>
<path d="M32.7754 24.5318H32.6939C32.6945 28.7284 29.7303 32.3409 25.6144 33.1598C21.4984 33.9787 17.3773 31.7759 15.7715 27.8986C14.1657 24.0214 15.5226 19.5498 19.0123 17.2187C22.502 14.8877 27.1524 15.3466 30.1191 18.3148C31.7683 19.9634 32.6945 22.1999 32.6939 24.5318H32.861C32.861 19.5817 28.8481 15.5688 23.898 15.5688C18.9479 15.5688 14.9351 19.5817 14.9351 24.5318C14.9351 29.4819 18.9479 33.4948 23.898 33.4948C28.8481 33.4948 32.861 29.4819 32.861 24.5318H32.7754Z" fill="#1B1934"/>
<path fill-rule="evenodd" clip-rule="evenodd" d="M2 24.7723C2 36.7448 11.7056 46.4504 23.6781 46.4504C35.6451 46.4369 45.3428 36.7392 45.3563 24.7723C45.3563 12.7998 35.6507 3.09412 23.6781 3.09412C11.7056 3.09412 2 12.7998 2 24.7723ZM4.99037 24.7723C4.99037 14.4513 13.3572 6.08447 23.6781 6.08447C33.9935 6.09794 42.3525 14.4569 42.3659 24.7723C42.3659 35.0932 33.9991 43.46 23.6781 43.46C13.3572 43.46 4.99037 35.0932 4.99037 24.7723Z" fill="#1B1934"/>
<path fill-rule="evenodd" clip-rule="evenodd" d="M2 22.6781C2 34.6507 11.7056 44.3563 23.6781 44.3563C35.6451 44.3428 45.3428 34.6451 45.3563 22.6781C45.3563 10.7056 35.6507 1 23.6781 1C11.7056 1 2 10.7056 2 22.6781ZM4.99037 22.6781C4.99037 12.3572 13.3572 3.99036 23.6781 3.99036C33.9935 4.00382 42.3525 12.3627 42.3659 22.6781C42.3659 32.9991 33.9991 41.3659 23.6781 41.3659C13.3572 41.3659 4.99037 32.9991 4.99037 22.6781Z" fill="#CDCDD7"/>
<path fill-rule="evenodd" clip-rule="evenodd" d="M31.5818 19.9201L38.2836 16.5916H38.2999L32.5433 22.1649C32.3296 21.3752 32.0059 20.6196 31.5818 19.9201ZM31.3292 20.0382L31.4188 19.9934C31.8541 20.71 32.1848 21.4851 32.4007 22.2953L31.4188 23.2404C31.2776 22.415 31.0024 21.6182 30.604 20.8816L31.3292 20.0382Z" fill="#393950"/>
<path d="M30.6041 20.8815L27.1167 24.8944C27.1167 24.9759 27.1167 25.0574 27.1167 25.1389C27.0908 25.6954 26.9148 26.2346 26.6074 26.6992C26.7177 26.719 26.8295 26.7286 26.9415 26.7278C27.5085 26.727 28.0532 26.5065 28.4611 26.1126L31.423 23.2607C31.2818 22.4353 31.0066 21.6384 30.6082 20.9018" fill="#1A192E"/>
<path d="M31.5817 19.92L31.4351 19.9934C31.8675 20.7104 32.1954 21.4855 32.4088 22.2952L32.5432 22.1649C32.3295 21.3752 32.0059 20.6196 31.5817 19.92" fill="#1A192E"/>
<path d="M23.8613 28.0966C22.6038 28.0358 21.5067 27.2234 21.0817 26.0383C20.6568 24.8532 20.9876 23.5288 21.9199 22.6827C22.8522 21.8366 24.2024 21.6355 25.3409 22.1731C26.4793 22.7108 27.1817 23.8813 27.1206 25.1388C27.0349 26.8545 25.5772 28.1773 23.8613 28.0966Z" fill="#454560"/>
<path d="M23.1772 7.37598V12.0286H24.6724V7.37598" fill="white"/>
<path d="M31.5452 9.30701L29.9849 12.0407L30.6367 12.4115L32.1971 9.67775" fill="white"/>
<path d="M37.4282 14.5992L33.623 16.8767L34.393 18.1641L38.1982 15.8826L37.4282 14.5992Z" fill="white"/>
<path d="M15.2002 9.67775L16.7565 12.4115L17.4083 12.0407L15.852 9.30701" fill="white"/>
<path d="M9.19873 15.8867L13.0487 18.1641L13.8106 16.8767L9.96058 14.5952" fill="#D1445C"/>
<path d="M37.6236 10.2523C44.1144 17.624 43.7876 28.7632 36.8757 35.7416C29.9638 42.7201 18.8283 43.1537 11.3947 36.7338L9.29248 38.8645C17.9031 46.4525 30.9371 46.0094 39.0124 37.8541C47.0878 29.6987 47.4024 16.661 39.7299 8.12561L37.6236 10.2523Z" fill="#8F90A0"/>
<path d="M11.1871 21.0526H10.2338V21.9367H11.3012V22.2056H9.91602V19.7611H11.2442V20.0259H10.2338V20.8041H11.1912L11.1871 21.0526Z" fill="white"/>
<path d="M36.6826 19.5085H38.0067V19.7774H37.0004V20.5922H37.9374V20.8571H37.0004V21.9693H36.6826V19.5085Z" fill="white"/>
<path d="M36.5197 14.09L22.6353 22.5233L25.866 26.3366L36.5197 14.09Z" fill="#D1445C"/>
<path d="M36.5198 14.09L24.2202 24.3974L25.8498 26.3366L36.5035 14.09" fill="#9C3950"/>
<path d="M24.1709 27.0497C23.0314 27.0917 21.9787 26.4432 21.5038 25.4065C21.0288 24.3698 21.2252 23.1491 22.0013 22.3136C22.7773 21.4781 23.9802 21.1924 25.0491 21.5897C26.118 21.987 26.8423 22.989 26.8842 24.1286C26.9415 25.6844 25.7268 26.9922 24.1709 27.0497Z" fill="white"/>
<path d="M25.4054 24.98C24.9445 25.303 24.3429 25.3447 23.8418 25.0886C23.3407 24.8326 23.0222 24.3205 23.0139 23.7578C23.0023 23.4852 23.0657 23.2146 23.1973 22.9756C22.6948 23.3393 22.4629 23.9713 22.611 24.5736C22.7591 25.176 23.2576 25.6285 23.8714 25.7177C24.4852 25.807 25.0919 25.5153 25.4054 24.98Z" fill="#454560"/>
<path d="M11.1219 36.9659C8.06592 34.4691 5.88649 31.0623 4.90078 27.2411C3.91126 23.378 4.1563 19.3019 5.60153 15.5852C8.60096 7.95673 16.1123 3.07357 24.3015 3.42813C26.9347 3.53392 29.5169 4.18745 31.8834 5.34702C34.2335 6.49077 36.3075 8.131 37.9619 10.1544C34.3914 6.39973 29.4618 4.23735 24.2812 4.15332C23.0138 4.13746 21.7478 4.2425 20.5004 4.46702C19.2557 4.69151 18.0377 5.04515 16.8663 5.52221C14.5163 6.46371 12.3797 7.86866 10.5841 9.65332C6.95108 13.2636 4.94971 18.2008 5.04338 23.3218C5.08258 25.8739 5.63688 28.3918 6.67301 30.7244C7.72649 33.0757 9.23268 35.1966 11.1056 36.9659" fill="white"/>
<path fill-rule="evenodd" clip-rule="evenodd" d="M41.8568 27.0171C39.8286 34.4899 33.5822 40.0621 25.9272 41.2275C33.6796 40.2731 40.0272 34.6107 41.8568 27.0171ZM15.2205 39.3412C14.1547 38.7988 13.1437 38.1548 12.2017 37.4182V37.4019C13.2306 38.1557 14.3319 38.8053 15.4894 39.3412H15.2205Z" fill="#393950"/>
<path d="M42.0724 21.4682C42.105 21.8756 42.1213 22.283 42.1254 22.6904C42.1314 23.9209 42.0168 25.149 41.7832 26.3571C41.3147 28.7559 40.3639 31.0345 38.9884 33.0549C38.3077 34.0638 37.5255 35.0003 36.6539 35.8497C34.9063 37.5546 32.8411 38.9001 30.5754 39.8097C29.443 40.2651 28.2679 40.6063 27.0676 40.8282C25.896 41.0462 24.7068 41.1567 23.515 41.1582H23.4132C22.1815 41.1488 20.9536 41.0205 19.7465 40.7752C18.5314 40.5311 17.3439 40.1653 16.2021 39.6834C15.9617 39.5856 15.7254 39.4797 15.4891 39.3697H15.2202C16.4771 40.01 17.803 40.5048 19.1721 40.8445C21.3675 41.3821 23.6418 41.5201 25.8861 41.2519C33.5632 40.0976 39.8305 34.5114 41.8565 27.0171C42.1126 25.9346 42.2734 24.8317 42.3373 23.7211C42.2949 22.9641 42.2065 22.2104 42.0724 21.4641" fill="#282736"/>
<path d="M36.3687 9.34779C38.1655 11.1092 39.6055 13.2007 40.6098 15.5078C41.4274 17.3987 41.9218 19.4135 42.0724 21.4682C42.2064 22.2144 42.2948 22.9682 42.3372 23.7252C42.3372 23.3789 42.3657 23.0285 42.3657 22.6782V22.2708V22.2463V22.2096V22.1852V22.1608V22.1282V22.1037V22.0793C42.2435 18.0938 40.8406 14.2538 38.3649 11.1282C37.7499 10.4768 37.0822 9.87722 36.3687 9.33557" fill="#1A192E"/>
<path fill-rule="evenodd" clip-rule="evenodd" d="M42.3535 23.7334C42.382 23.3871 42.382 23.0367 42.382 22.6864L42.3494 22.6782C42.3457 28.4196 39.7048 33.841 35.1864 37.3831C30.6679 40.9253 24.7727 42.1954 19.1965 40.8282C24.0338 42.0185 29.1462 41.2299 33.4 38.6372C37.6538 36.0446 40.6976 31.8621 41.8565 27.0171C42.1173 25.9391 42.2836 24.8403 42.3535 23.7334ZM10.0399 35.5584C10.0311 35.5469 10.0223 35.5353 10.0135 35.5238H10.0054C10.0169 35.5353 10.0284 35.5469 10.0399 35.5584ZM10.0399 35.5584C10.4101 36.0433 10.8094 36.5052 11.2357 36.9416L11.3906 36.7827C10.9204 36.3972 10.4696 35.9886 10.0399 35.5584Z" fill="#9A9CAC"/>
<path d="M38.3652 11.1282C40.8316 14.2487 42.2299 18.0792 42.3538 22.0548V22.0793V22.1282V22.1526V22.1771V22.2015V22.226V22.2504V22.3237V22.3441V22.3645V22.393C42.4388 28.1852 39.8347 33.6897 35.3027 37.2977C30.7707 40.9056 24.8224 42.2095 19.1967 40.8282C16.6602 40.1979 14.2851 39.0401 12.226 37.4304C11.9449 37.2226 11.6678 37.023 11.4112 36.7867L11.2563 36.9456C12.623 38.3228 14.2022 39.4714 15.9334 40.3474C17.0938 40.9279 18.31 41.3893 19.5634 41.7245C20.8228 42.0549 22.113 42.2542 23.4134 42.3193C23.7597 42.3193 24.106 42.3478 24.4482 42.3478C26.7293 42.344 28.9911 41.93 31.1256 41.1256C33.5955 40.1931 35.8445 38.7572 37.7297 36.9089C39.6165 35.0647 41.0936 32.8436 42.0645 30.3904C43.0295 27.9419 43.4561 25.3144 43.3152 22.6863C43.1116 18.3631 41.3538 14.2587 38.3652 11.1282Z" fill="#686A7C"/>
</svg>
