<svg width="48" height="48" viewBox="0 0 48 48" fill="none" xmlns="http://www.w3.org/2000/svg">
<rect width="48" height="48" fill="white" fill-opacity="0.01"/>
<path d="M26.9075 33.7849H20.8896V13.8936H26.9075V33.7849Z" fill="#454560"/>
<path d="M26.6772 30.231H20.9268V21.0959H26.6772V30.231Z" fill="#1B1934"/>
<path d="M33.2536 2.00677C26.4136 2.03476 20.8893 7.59844 20.9099 14.4385H26.8872C26.9425 11.0197 29.6924 8.2572 33.1109 8.18635C36.5294 8.11551 39.3915 10.7617 39.5884 14.1752C39.7853 17.5888 37.2465 20.5465 33.8425 20.8692V20.832H13.9613V20.8557C7.16271 21.1114 1.83326 26.7858 2.00399 33.5871C2.17472 40.3884 7.78216 45.7883 14.585 45.7025C21.3879 45.6168 26.8574 40.0773 26.8567 33.2738H20.8693C20.8162 36.6994 18.0578 39.4666 14.6325 39.5305C11.2071 39.5945 8.34731 36.9323 8.16633 33.5111C7.98535 30.0899 10.5483 27.1408 13.9613 26.8431H33.2536V26.8634C40.1194 26.8634 45.6853 21.2975 45.6853 14.4317C45.6853 7.56586 40.1194 2 33.2536 2" fill="#454560"/>
<path fill-rule="evenodd" clip-rule="evenodd" d="M32.6817 8.0415C29.8358 8.31482 27.515 10.4397 26.9922 13.2504C27.4959 10.4306 29.811 8.28818 32.6614 8.00427L32.6817 8.0415Z" fill="#1F2D53"/>
<path d="M33.2538 6.68774C29.728 6.71937 26.8896 9.59255 26.9009 13.1185C26.9381 13.1659 26.972 13.2167 27.0058 13.2674C27.5052 10.4467 29.8153 8.29965 32.6649 8.00774H32.7191H32.7901H33.8326H33.9071H34.0763C37.0136 8.43006 39.2806 10.8075 39.5628 13.7616C39.5831 13.5484 39.5966 13.3351 39.5966 13.1151C39.6061 9.5944 36.7744 6.72491 33.2538 6.68774Z" fill="#1D1E30"/>
<path d="M2.19971 32.624C2.19971 32.8406 2.19971 33.0539 2.19971 33.2705C2.19971 40.0802 7.7201 45.6006 14.5299 45.6006C21.3396 45.6006 26.86 40.0802 26.86 33.2705H26.7923C26.1742 39.7157 20.6737 44.5833 14.2012 44.4131C7.7287 44.2429 2.49173 39.0928 2.21325 32.624" fill="#1D1E30"/>
<path d="M45.5565 13.7954C45.228 20.3625 39.8285 25.5302 33.2534 25.5705V25.5501H13.9611C10.6614 25.88 8.15356 28.6648 8.17 31.9809C8.17 32.2009 8.17 32.4175 8.20385 32.6308C8.4437 30.0503 10.209 27.866 12.6817 27.0901H12.8611H12.9152H12.9322H12.9457H12.9829H13.0202C13.251 27.0347 13.485 26.9929 13.7208 26.9649H13.9611H33.2534V26.9852C36.554 26.9647 39.7101 25.629 42.0226 23.2739C44.3351 20.9188 45.6131 17.7388 45.5734 14.4385V14.3978C45.5734 14.2218 45.5734 14.0594 45.5734 13.8766C45.5717 13.8484 45.5717 13.8202 45.5734 13.792" fill="#1D1E30"/>
<rect x="23.77" y="12.5566" width="0.697231" height="4.97877" fill="white"/>
<path d="M25.3388 8.24509L29.074 5.0931L29.5237 5.62595L25.7885 8.77795L25.3388 8.24509Z" fill="white"/>
<path d="M33.6086 4.78889L33.8391 4.13084L38.4103 5.73165L38.1798 6.38969L33.6086 4.78889Z" fill="white"/>
<path d="M40.9458 9.30436L41.6139 9.10493L43.0341 13.8627L42.366 14.0622L40.9458 9.30436Z" fill="white"/>
<path d="M39.4856 21.2594L42.2088 17.1481L42.7901 17.5331L40.0669 21.6444L39.4856 21.2594Z" fill="white"/>
<rect x="31.3276" y="23.0692" width="4.82646" height="0.697231" fill="white"/>
<rect x="22.646" y="22.9913" width="4.82646" height="0.697231" fill="white"/>
<rect x="13.5688" y="23.1471" width="4.82646" height="0.697231" fill="white"/>
<path d="M6.3146 27.0722L10.0208 23.881L10.4757 24.4094L6.76954 27.6006L6.3146 27.0722Z" fill="white"/>
<path d="M4.82745 30.5938L5.52376 30.5579L5.77999 35.5301L5.08368 35.5659L4.82745 30.5938Z" fill="white"/>
<path d="M6.77073 39.0309L7.21479 38.4933L10.9828 41.606L10.5387 42.1436L6.77073 39.0309Z" fill="white"/>
<path d="M14.9141 42.5903L19.4086 40.7763L19.6695 41.4228L15.175 43.2369L14.9141 42.5903Z" fill="white"/>
<path d="M22.0552 37.7729L24.004 33.2172L24.6451 33.4914L22.6962 38.0471L22.0552 37.7729Z" fill="white"/>
</svg>
