<svg width="48" height="48" viewBox="0 0 48 48" fill="none" xmlns="http://www.w3.org/2000/svg">
<rect width="48" height="48" fill="white" fill-opacity="0.01"/>
<path d="M28.8567 22.1877C28.8567 22.1877 26.6222 24.5915 26.5104 24.7415C26.3987 24.8916 27.366 28.9649 27.366 28.9649C27.366 28.9649 30.1751 28.8563 30.3284 28.2658C30.4816 27.6752 31.0913 22.2005 31.0913 22.2005" fill="#F1AF6D"/>
<path d="M28.1704 28.9074C28.1704 27.9944 28.2406 25.7152 28.5822 24.8373C28.9557 23.8637 30.5518 23.2986 30.9828 23.1614C31.0498 22.5772 31.0913 22.1877 31.0913 22.1877H28.8567C28.8567 22.1877 26.6222 24.5915 26.5104 24.7415C26.3987 24.8916 27.366 28.9649 27.366 28.9649C27.366 28.9649 27.7299 28.9489 28.1704 28.9074Z" fill="#D7854C"/>
<path d="M18.1855 11.3054C18.1855 11.3054 17.978 12.1577 17.5055 12.4482C17.0331 12.7387 17.397 14.1944 17.962 14.3285C18.527 14.4625 20.0625 15.1616 20.9563 13.4634" fill="#454560"/>
<path d="M18.7916 11.778C18.9428 12.2671 18.9907 12.7824 18.9321 13.2911C18.8924 13.7214 18.7156 14.1276 18.4277 14.4499C19.1396 14.6414 20.2473 14.801 20.956 13.4571L18.7916 11.778Z" fill="#1B1934"/>
<path d="M19.4081 35.8697L13.2184 31.8667C12.4164 31.5348 11.5504 31.3864 10.6837 31.4325H10.5911C9.14506 31.5315 6.16989 31.9305 5.67829 35.1164C5.67829 35.1164 5.40695 36.9615 6.63596 37.402C6.99986 37.6912 7.38272 37.9557 7.78197 38.1937L8.0182 38.3341L8.1012 38.382L8.29592 38.4938L8.3885 38.5448L8.64069 38.6789L8.69176 38.7044L9.01099 38.8641L9.10675 38.9088L9.35894 39.0269L9.47386 39.0779L9.76116 39.2024L9.84416 39.2376C9.96866 39.2918 10.0963 39.3397 10.2272 39.3908L10.3294 39.4291C10.4283 39.4674 10.5305 39.5025 10.6486 39.5376L10.7827 39.5855L11.1019 39.6877L11.2168 39.7228L11.6573 39.8505L11.7499 39.8728L12.1202 39.9622L12.2703 39.9973L12.6214 40.0675L12.7619 40.0931C12.9247 40.1218 13.0811 40.1505 13.2567 40.1729H13.3205L13.7642 40.224H13.927C14.0515 40.224 14.1792 40.2431 14.3069 40.2527H14.4697C14.6485 40.2527 14.8272 40.2686 15.0092 40.2686L17.8343 40.7922C17.8343 40.7922 16.2382 38.1107 19.4081 35.8697Z" fill="#D1445C"/>
<path d="M17.6971 37.8393C16.176 37.5669 14.6695 37.2186 13.1832 36.7955C10.904 36.1826 8.62472 34.0055 7.23929 32.4668C6.80939 32.7787 6.44874 33.1763 6.18009 33.6345C5.91143 34.0928 5.74057 34.6016 5.67829 35.1291C5.67829 35.1291 5.40695 36.9742 6.63596 37.4148C6.99986 37.7039 7.38272 37.9684 7.78197 38.2064L8.0182 38.3469L8.1012 38.3948L8.29592 38.5065L8.3885 38.5576L8.64069 38.6917L8.69176 38.7172L9.01098 38.8768L9.10675 38.9215L9.35894 39.0396L9.47386 39.0907L9.76116 39.2152L9.84416 39.2503C9.96866 39.3046 10.0963 39.3525 10.2272 39.4035L10.3294 39.4418C10.4283 39.4801 10.5305 39.5153 10.6486 39.5504L10.7827 39.5983L11.1019 39.7004L11.2168 39.7355L11.6573 39.8632L11.7499 39.8856L12.1202 39.9749L12.2703 40.0101L12.6214 40.0803L12.7619 40.1058C12.9247 40.1346 13.0811 40.1633 13.2567 40.1856H13.3205L13.7642 40.2367H13.927C14.0515 40.2367 14.1792 40.2559 14.3069 40.2654H14.4697C14.6485 40.2654 14.8272 40.2814 15.0092 40.2814L17.8343 40.7922C17.5954 40.3404 17.4593 39.8415 17.4355 39.3311C17.4118 38.8206 17.5011 38.3113 17.6971 37.8393Z" fill="#9E334A"/>
<path d="M22.5522 38.7108L23.8706 41.1976C23.8706 41.1976 24.6049 42.0946 25.6615 41.9095L30.1945 43.5056C30.1945 43.5056 30.8936 43.3843 30.6414 42.7458C30.6414 42.7458 31.1106 42.9182 30.9829 42.1617C30.9829 42.1617 32.0268 41.5679 31.1617 41.1369L30.9829 40.8496C30.9829 40.8496 32.1321 40.4091 31.1777 39.892L25.4604 39.1195L23.8036 36.588L22.5522 38.7108Z" fill="#D7854C"/>
<path d="M12.3688 31.5634L11.6602 32.6455L21.655 37.9127L30.3284 32.0358L28.3268 30.9888L12.3688 31.5634Z" fill="#D1445C"/>
<path d="M29.5594 32.2497L29.1731 32.355L21.9012 37.0923L18.0705 34.9982L19.3474 35.825L19.4145 35.7963L21.8278 37.1625L21.9076 37.0923L29.0901 32.5146C29.2394 32.4142 29.3963 32.3256 29.5594 32.2497ZM12.7427 31.6878C12.9048 31.7361 13.0637 31.7948 13.2183 31.8634L17.6555 34.7364C19.0052 35.3978 20.4817 35.7604 21.9842 35.7994C22.2828 35.8059 22.5813 35.7813 22.8748 35.726C24.1709 35.2057 25.9873 32.0965 25.9873 32.0965L26.6576 32.0007C25.0615 32.1507 23.4941 32.2082 22.0065 32.2082C20.519 32.2082 19.0729 32.1475 17.8024 32.0645C16.5319 31.9815 15.2135 31.9368 13.8695 31.8091H13.6588H13.7546L12.7427 31.6878ZM29.4732 31.5857H29.4285H29.4636L30.2585 32.0071L29.4732 31.5985" fill="#990C16"/>
<path d="M18.2428 8.88253C18.2428 8.88253 17.1192 13.8497 21.052 14.2391C21.052 14.2391 24.1612 14.8424 24.8093 11.6023L25.154 9.02299L23.1238 7.58648L22.0448 5.67114L19.1111 6.50432L18.246 8.88253" fill="#F1AF6D"/>
<path d="M19.4109 35.7964L22.9958 37.8267L21.4827 40.2017L17.7382 40.6486L16.9912 38.5194L17.3775 36.6168L19.4109 35.7964Z" fill="#D7854C"/>
<path d="M8.30551 31.9082L7.05416 33.5299C6.90191 33.6678 6.71173 33.7567 6.50829 33.7852C6.46465 33.7861 6.4216 33.7751 6.38379 33.7533C6.5069 33.8639 6.66527 33.9273 6.8307 33.9321C7.18504 33.9321 7.70537 33.6129 8.2289 32.2274L8.30551 31.9082Z" fill="#922F45"/>
<path d="M19.4077 35.8698C19.4077 35.8698 16.6719 35.9527 16.8539 38.2224C17.0359 40.4921 17.8116 40.7762 17.8116 40.7762" fill="#D7854C"/>
<path d="M10.1217 31.49H9.9174C9.7546 31.5123 9.59818 31.5379 9.41303 31.5698L9.09381 31.8539L8.40109 33.7309C8.37364 33.7759 8.33037 33.8089 8.27979 33.8235C8.32886 33.8358 8.37923 33.8422 8.42982 33.8427C8.63515 33.8332 8.82966 33.7479 8.97569 33.6032L9.41941 32.0071L10.1217 31.4996" fill="#922F45"/>
<path d="M29.3709 31.1835L12.1519 31.5028L12.9723 28.8149L10.5303 30.5642L9.10655 31.8826L8.41383 33.7597C8.21911 34.0406 7.89669 33.6096 7.89669 33.6096L8.3053 31.9241L7.05394 33.5458C6.29738 34.1076 6.27503 33.5649 6.27503 33.5649L7.3987 31.8603L5.86643 33.2425C5.17371 33.6735 5.15137 33.0893 5.15137 33.0893L6.68683 31.1037C5.75789 30.2163 6.10265 29.5076 6.10265 29.5076C6.44741 28.4925 7.11778 28.6457 7.11778 28.6457C7.42105 28.9649 7.00925 29.0767 7.00925 29.0767C6.46976 29.5938 7.05394 30.2865 7.05394 30.2865L7.63812 30.2642L7.87434 30.0694C7.92871 29.8483 7.92558 29.6169 7.86523 29.3973C7.80488 29.1777 7.68933 28.9772 7.52958 28.8149C7.27101 28.2563 7.78815 28.2563 7.78815 28.2563C8.7171 28.2116 8.54471 29.8971 8.54471 29.8971L8.78094 29.8109L11.2645 26.5037L11.3092 24.2149C12.1296 19.6564 12.9053 18.1656 12.9053 18.1656C14.3514 16.7419 17.3744 15.7682 17.3744 15.7682L19.8612 15.1298L19.9889 13.7922L23.0151 13.8146V15.433L25.1316 15.714C25.1316 15.714 27.6151 16.3524 29.406 17.8304C29.406 17.8304 30.9638 18.4369 30.702 22.7784L30.7244 23.0976L30.3796 23.2061L25.1507 23.4711L29.3709 31.1835Z" fill="#F1AF6D"/>
<path d="M25.0773 40.9613L20.407 42.2606L17.8979 40.6197L21.901 37.0923L24.7517 36.7891L26.1052 39.0236L25.0773 40.9613Z" fill="#F1AF6D"/>
<path d="M12.5414 22.9954C12.5414 22.9954 14.1822 23.9722 13.499 26.5068C12.507 28.1097 11.2124 29.504 9.68752 30.6121C9.56738 31.0276 9.3958 31.4265 9.17676 31.7996L10.5526 30.5514L13.6203 28.4094L15.4782 24.1318L14.7855 22.1877L12.5414 22.9954Z" fill="#D7854C"/>
<path d="M16.9787 15.7554C16.9787 15.7554 16.6148 20.748 21.483 20.9204C21.483 20.9204 25.5052 21.6482 26.3671 16.0906L29.7477 17.8686C29.7477 17.8686 31.5066 19.0498 31.248 23.1677L30.7149 23.3114C30.1141 23.4732 29.4908 23.5358 28.8698 23.4965L28.2505 23.455C28.2505 23.455 28.1739 25.5491 27.0343 25.9833C27.0343 25.9833 29.8179 28.2753 29.4731 31.5921C29.4731 31.5921 20.9084 32.7413 12.0371 31.6463L12.2957 31.0079C12.2957 31.0079 13.0618 27.4645 14.0674 26.1972L14.6867 25.5587C14.6867 25.5587 13.9078 24.0903 14.3994 22.7049C13.902 22.9269 13.3649 23.0464 12.8203 23.0563C12.2757 23.0662 11.7346 22.9662 11.2295 22.7623C11.2295 22.7623 11.5487 19.6244 12.6117 18.0123C13.9998 17.1359 15.4609 16.3808 16.9787 15.7554Z" fill="#454560"/>
<path d="M20.4072 42.2606L17.9843 42.4936C17.7971 42.6703 17.5658 42.7932 17.3147 42.8494C17.0635 42.9056 16.8019 42.8929 16.5573 42.8128L11.1593 42.7266C11.1593 42.7266 10.4665 42.4074 10.9837 41.9892C10.9837 41.9892 10.4219 41.9892 10.856 41.4306C10.856 41.4306 9.99091 40.6517 11.0699 40.5655L11.3731 40.3931C11.3731 40.3931 10.3357 39.7004 11.5455 39.5727L17.8757 40.6262L20.6179 39.113L20.4072 42.251" fill="#F1AF6D"/>
<path d="M19.9697 8.94319C19.9697 8.94319 20.2889 8.22813 21.4733 8.16748C21.5117 8.31648 21.5289 8.47016 21.5243 8.62397C21.4892 8.70378 20.4677 8.76762 19.9697 8.94319Z" fill="#464F5E"/>
<path d="M20.1675 9.66138C20.183 9.84407 20.2696 10.0134 20.4087 10.1328C20.5479 10.2522 20.7283 10.3122 20.9113 10.2998C21.0943 10.3241 21.2799 10.2812 21.4337 10.1791C21.5875 10.0769 21.699 9.92248 21.7476 9.74438C21.6506 9.8665 21.5241 9.96193 21.38 10.0217C21.2359 10.0814 21.079 10.1036 20.924 10.0859C20.7709 10.0926 20.619 10.0564 20.4853 9.98135C20.3517 9.90634 20.2416 9.79553 20.1675 9.66138Z" fill="#464F5E"/>
<path d="M22.5779 6.33838C22.5779 6.33838 23.1302 7.38543 22.8173 9.0837C22.7434 9.35725 22.709 9.63997 22.7152 9.92326L23.0344 10.8809C23.0388 10.9648 23.0223 11.0484 22.9862 11.1242C22.9501 11.2001 22.8957 11.2657 22.8278 11.3151C22.76 11.3646 22.6809 11.3963 22.5976 11.4075C22.5144 11.4186 22.4297 11.4088 22.3513 11.3789C22.3513 11.3789 22.6035 13.7284 22.3513 13.8752C22.3513 13.8752 22.1725 14.2807 22.064 14.2998C22.064 14.2998 24.024 14.7435 24.7071 12.2121L25.2402 8.92728L24.1293 7.20347L22.5779 6.33838Z" fill="#D7854C"/>
<path d="M19.7496 11.3662C19.8228 11.5765 19.956 11.7607 20.1327 11.8961C20.3838 12.0904 20.687 12.2054 21.0037 12.2264C21.3205 12.2475 21.6363 12.1736 21.9108 12.0142C21.9108 11.9727 21.6682 12.5346 20.6818 12.4324C20.422 12.4016 20.1828 12.2756 20.0107 12.0786C19.8385 11.8816 19.7455 11.6278 19.7496 11.3662Z" fill="#D7854C"/>
<path d="M18.2044 9.3039C18.2044 9.3039 16.455 8.54734 17.4638 10.6414C17.4638 10.6414 17.3265 11.4204 18.0352 11.2799L18.7917 10.7659L18.2044 9.3039Z" fill="#F1AF6D"/>
<path d="M20.1455 13.9294C20.1455 13.9294 20.3881 15.4074 21.2468 16.097C21.6395 16.4162 21.9076 16.9525 22.7376 16.7354C24.2252 16.3587 23.9283 16.4513 24.9722 17.2302L25.8149 18.1687L26.1341 17.5303C26.2181 17.3492 26.2895 17.1625 26.348 16.9716L26.5364 16.164C26.5364 16.164 25.3872 15.4873 23.0441 15.4426V13.9965C23.0441 13.9965 21.8725 14.5615 20.1455 13.9294Z" fill="#D7854C"/>
<path d="M18.0863 9.53386C18.0863 9.53386 17.3489 9.21463 17.684 9.96162L17.7415 10.3798V10.6001L17.9554 10.7884L18.1437 10.7373L18.0863 9.66155V9.53386Z" fill="#D7854C"/>
<path d="M24.3528 9.22092C24.3528 9.22092 24.1549 8.46117 22.9961 8.20898C22.9346 8.34943 22.8927 8.49766 22.8716 8.64951C22.8971 8.72293 23.8995 8.96554 24.3528 9.22092Z" fill="#464F5E"/>
<path d="M8.35626 31.8507L6.86548 33.4053C6.86548 33.4053 6.54626 33.8235 6.39941 33.7533C6.39941 33.7533 6.6931 33.9033 7.13363 33.4724L8.35626 31.8507Z" fill="#D7854C"/>
<path d="M7.55217 31.707L5.70386 33.0318C5.70386 33.0318 5.49637 33.351 5.2793 33.351C5.2793 33.351 5.58256 33.5394 6.0199 33.1052L7.55217 31.707Z" fill="#D7854C"/>
<path d="M27.2064 20.3873C27.2064 20.3873 28.3684 22.1111 28.2503 23.4551H28.9047C29.5495 23.4819 30.1948 23.4142 30.82 23.254L31.2223 23.155C31.2223 23.155 32.3619 17.5526 26.5073 16.1321C26.5073 16.1321 25.9008 20.282 22.3159 20.9492C23.9675 21.1157 25.6356 20.9241 27.2064 20.3873Z" fill="#1B1934"/>
<path d="M22.2425 23.3881H20.3878C20.3167 23.3881 20.2485 23.3599 20.1982 23.3096C20.1479 23.2593 20.1196 23.1911 20.1196 23.12C20.1196 23.0488 20.1479 22.9806 20.1982 22.9303C20.2485 22.8801 20.3167 22.8518 20.3878 22.8518H22.2393C22.3104 22.8518 22.3786 22.8801 22.4289 22.9303C22.4792 22.9806 22.5074 23.0488 22.5074 23.12C22.5074 23.1911 22.4792 23.2593 22.4289 23.3096C22.3786 23.3599 22.3104 23.3881 22.2393 23.3881H22.2425Z" fill="#1B1934"/>
<path d="M14.3802 22.6923L14.5302 22.3731L13.9237 19.915L13.5757 22.2773L12.2988 22.9828C12.3371 22.9636 13.5917 23.1807 14.3802 22.6923Z" fill="#1B1934"/>
<path d="M27.1554 27.803C27.2004 28.3803 27.0196 28.9525 26.651 29.3991V29.4182C26.65 29.6811 26.5819 29.9393 26.4531 30.1684L26.4307 30.1908H26.5424C26.5424 30.1908 25.5848 32.9552 14.3896 31.5155L12.0273 31.6432C12.0273 31.6432 18.8811 32.4956 24.8729 31.8635L28.8472 30.3057L27.1554 27.803Z" fill="#1B1934"/>
<path d="M11.2901 40.058L11.1816 40.0069C11.1555 39.9949 11.132 39.9778 11.1125 39.9566C11.0931 39.9355 11.078 39.9107 11.0682 39.8836C11.0584 39.8566 11.054 39.8279 11.0554 39.7992C11.0568 39.7705 11.0639 39.7423 11.0762 39.7164L11.1018 39.6621C11.1135 39.6357 11.1303 39.6119 11.1514 39.5921C11.1724 39.5723 11.1972 39.5569 11.2242 39.5468C11.2513 39.5367 11.2801 39.5321 11.3089 39.5333C11.3378 39.5344 11.3661 39.5413 11.3923 39.5536L11.5008 39.6015C11.553 39.6264 11.5932 39.6708 11.613 39.7251C11.6327 39.7795 11.6302 39.8394 11.6061 39.892L11.5806 39.9494C11.5563 40.0021 11.5121 40.0431 11.4577 40.0635C11.4033 40.0838 11.3431 40.0818 11.2901 40.058Z" fill="#EF795C"/>
<path d="M20.5538 25.5907C20.5538 25.5907 20.0686 25.6641 20.1867 26.0344L20.2314 26.2387C20.1926 26.2358 20.1537 26.2434 20.1188 26.2606C20.0839 26.2779 20.0543 26.3042 20.0331 26.3369C20.0119 26.3695 19.9999 26.4073 19.9982 26.4462C19.9966 26.485 20.0055 26.5237 20.0239 26.5579H20.5538L20.873 26.127L20.5538 25.5907Z" fill="#454560"/>
<path d="M29.0898 32.5146L21.9009 37.0923C21.9009 37.0923 25.374 37.2806 25.0229 41.0379L33.61 40.8081C34.0815 40.7899 34.5372 40.6325 34.9195 40.3559C35.3018 40.0792 35.5937 39.6956 35.7584 39.2534C35.7584 39.2534 38.8293 35.742 35.7584 33.335C35.7584 33.335 31.8192 30.6982 29.0802 32.5146" fill="#D1445C"/>
<path d="M24.959 39.6365C24.959 39.7418 24.9749 39.9014 24.9813 40.0706L25.0388 40.8304C25.0651 40.4306 25.0383 40.0292 24.959 39.6365Z" fill="#B68457"/>
<path d="M31.0116 40.8784L30.6987 40.8848L31.0148 40.8784H31.0116Z" fill="#A3653D"/>
<path d="M23.9505 41.2742L22.2554 41.7466L23.9696 41.2933L23.9505 41.2742Z" fill="#EBC2A5"/>
<path d="M25.0297 40.9741L23.9507 41.2742L23.9698 41.2933L25.0265 41.0156L25.0297 40.9741Z" fill="#D7854C"/>
<path d="M11.2134 42.7107L16.5572 42.7969L11.2134 42.7107ZM17.7926 42.6437C17.5639 42.7897 17.2978 42.8662 17.0264 42.8639C16.8677 42.863 16.7098 42.8404 16.5572 42.7969C16.7433 42.8609 16.9382 42.8953 17.135 42.899C17.2564 42.9053 17.3778 42.8857 17.4911 42.8417C17.6044 42.7977 17.7072 42.7302 17.7926 42.6437Z" fill="#EBC2A5"/>
<path d="M24.9208 39.4705L24.1738 39.5439L22.3606 40.4505L20.4932 40.99L20.4102 42.2222C20.4963 42.2031 20.5762 42.1775 20.5762 42.1775L22.2553 41.737L23.9504 41.2646L25.0293 40.9645V40.9102L24.9942 40.7314C24.9942 40.6389 24.9942 40.3388 24.9942 40.0611L24.9591 39.5695C24.9591 39.5344 24.9591 39.4961 24.9336 39.4609" fill="#E49A5C"/>
<path d="M20.4932 40.9901C18.3959 41.5934 18.1788 41.6286 18.1788 41.6286C17.6042 42.4809 16.356 42.5639 15.9059 42.5639C15.8006 42.5639 15.7367 42.5639 15.7367 42.5639C15.0504 42.532 14.4407 42.5224 13.9076 42.5224C12.9957 42.5076 12.0838 42.5545 11.1782 42.6628L11.2133 42.7107L16.5571 42.7969C16.7098 42.8405 16.8677 42.863 17.0264 42.864C17.2977 42.8662 17.5639 42.7897 17.7925 42.6437C17.8438 42.5923 17.885 42.5316 17.9138 42.4649C17.9138 42.4649 19.9952 42.267 20.1803 42.267H20.2091C20.2771 42.2618 20.3444 42.25 20.4102 42.2319L20.4932 40.9901Z" fill="#E49A5C"/>
<path d="M25.0326 40.9199V40.9741V41.0156H25.0614L25.0422 40.9262L25.0326 40.9199ZM24.9496 39.4738H24.9209C24.9209 39.5089 24.9401 39.5472 24.9464 39.5823V39.4706" fill="#D46554"/>
<path d="M24.9813 40.0707C24.9813 40.3484 25.0037 40.6485 24.9813 40.7411L25.0164 40.9198C25.0164 40.8879 25.0164 40.8592 25.0164 40.8304L24.959 40.0707" fill="#C78551"/>
<path d="M25.0391 40.8306C25.0391 40.8593 25.0391 40.888 25.0391 40.9199L25.0582 41.0093V40.8306" fill="#BB5C4B"/>
<path d="M11.041 39.6844L11.057 39.694H11.0602L11.041 39.6844Z" fill="#C1C1CC"/>
<path d="M17.7799 40.7188C17.7913 40.744 17.8041 40.7685 17.8182 40.7922L17.7799 40.7188ZM11.0762 39.6941H11.0985H11.0762Z" fill="#B68457"/>
<path d="M11.0985 42.2063H11.0155C10.9344 42.2063 10.8687 42.272 10.8687 42.3531V42.3978C10.8687 42.4789 10.9344 42.5447 11.0155 42.5447H11.0985C11.1796 42.5447 11.2453 42.4789 11.2453 42.3978V42.3531C11.2453 42.272 11.1796 42.2063 11.0985 42.2063Z" fill="#EF795C"/>
<path d="M10.942 41.5007H10.8462C10.751 41.5007 10.6738 41.5779 10.6738 41.6731V41.7242C10.6738 41.8194 10.751 41.8966 10.8462 41.8966H10.942C11.0372 41.8966 11.1144 41.8194 11.1144 41.7242V41.6731C11.1144 41.5779 11.0372 41.5007 10.942 41.5007Z" fill="#EF795C"/>
<path d="M10.8111 40.6645H10.9292C10.9876 40.6645 11.0437 40.6877 11.085 40.729C11.1263 40.7703 11.1495 40.8263 11.1495 40.8847V40.9486C11.1495 41.007 11.1263 41.063 11.085 41.1043C11.0437 41.1456 10.9876 41.1688 10.9292 41.1688H10.8111C10.7527 41.1688 10.6967 41.1456 10.6554 41.1043C10.6141 41.063 10.5908 41.007 10.5908 40.9486V40.8847C10.5904 40.8557 10.5958 40.8268 10.6067 40.7999C10.6177 40.773 10.6339 40.7485 10.6544 40.728C10.6749 40.7075 10.6994 40.6913 10.7263 40.6803C10.7532 40.6694 10.7821 40.664 10.8111 40.6645Z" fill="#EF795C"/>
<path d="M30.1928 42.9773L30.1775 43.0327C30.1482 43.138 30.2099 43.2471 30.3152 43.2763L30.4198 43.3054C30.5251 43.3346 30.6342 43.273 30.6635 43.1676L30.6788 43.1123C30.7081 43.007 30.6464 42.8979 30.5411 42.8686L30.4365 42.8396C30.3312 42.8103 30.2221 42.872 30.1928 42.9773Z" fill="#D1445C"/>
<path d="M30.7401 42.2573H30.8359C30.8583 42.2605 30.8799 42.268 30.8994 42.2795C30.9189 42.291 30.936 42.3062 30.9496 42.3243C30.9633 42.3424 30.9732 42.363 30.9789 42.3849C30.9845 42.4068 30.9858 42.4296 30.9827 42.4521V42.5C30.9771 42.5452 30.9538 42.5864 30.9179 42.6145C30.882 42.6427 30.8364 42.6554 30.7912 42.65H30.6954C30.6502 42.6429 30.6095 42.6187 30.5816 42.5825C30.5537 42.5463 30.5407 42.5008 30.5454 42.4553V42.4074C30.5517 42.3619 30.5757 42.3207 30.6121 42.2926C30.6485 42.2645 30.6944 42.2519 30.7401 42.2573Z" fill="#D1445C"/>
<path d="M30.7935 41.5809L30.8018 41.5176C30.8092 41.4605 30.8389 41.4087 30.8846 41.3735C30.9302 41.3384 30.9879 41.3228 31.0449 41.3302L31.1621 41.3454C31.2192 41.3528 31.271 41.3826 31.3061 41.4282C31.3413 41.4738 31.3568 41.5315 31.3494 41.5886L31.3412 41.6519C31.3338 41.709 31.304 41.7608 31.2584 41.7959C31.2128 41.8311 31.1551 41.8467 31.098 41.8393L30.9809 41.8241C30.9242 41.8159 30.8729 41.7859 30.8379 41.7405C30.8029 41.6951 30.787 41.6378 30.7935 41.5809Z" fill="#D1445C"/>
<path d="M29.4697 31.6337C28.9238 31.1612 29.2047 30.6983 29.3835 30.1429C29.4952 29.8237 28.5088 29.0352 28.4258 28.9107C28.3428 28.7862 28.7833 28.2052 28.4705 27.7998C28.3127 27.6193 28.1717 27.4249 28.0491 27.2188C28.0236 27.1167 27.4107 26.3633 27.2606 26.4559C26.8501 26.7389 26.3864 26.9355 25.8976 27.0337C25.1379 27.1653 24.3717 27.2559 23.6023 27.305C23.2544 27.2763 22.6255 27.2826 22.0062 27.305C21.4955 27.305 20.9943 27.305 20.691 27.305H20.6623C19.9951 27.2475 19.3311 27.2475 18.6671 27.139C18.3192 27.0752 17.071 26.8804 16.8891 26.8581C16.7773 26.8581 16.7231 27.3976 16.771 27.5636C16.8188 27.7296 19.0406 28.4063 19.4046 28.6074C19.7238 28.882 16.8986 28.3074 16.688 28.2595C16.4485 28.2595 16.3049 28.3106 16.19 28.8373C16.0751 29.364 16.8029 29.2842 16.7167 29.6545C16.6305 30.0248 15.7079 30.1748 15.3983 30.2163C15.3389 30.2228 15.2789 30.2228 15.2195 30.2163C15.1355 30.203 15.0494 30.2129 14.9705 30.245C14.8875 30.2897 14.514 31.2315 14.1948 31.7677C17.3104 32.1221 23.497 32.6711 29.4761 31.6656" fill="#1B1934"/>
<path d="M14.559 25.9131C14.559 25.9131 13.7513 25.9131 14.1376 26.6058C14.1376 26.6058 13.0905 26.5196 13.63 27.6433L14.2685 27.4039L14.4089 26.8995L14.559 25.9131Z" fill="#454560"/>
<path d="M14.7471 27.0495C14.5651 26.9282 14.3991 26.7813 14.2172 26.6536C13.9267 26.4174 13.8979 26.8707 13.8979 26.8707L14.8812 27.3687C14.816 27.2721 14.7705 27.1636 14.7471 27.0495Z" fill="#1B1934"/>
<path d="M21.4829 20.9205C21.5244 20.9205 21.6361 21.195 21.6617 21.2397C21.8098 21.4631 22.0048 21.6516 22.2331 21.792C22.3711 21.8754 22.5246 21.9297 22.6844 21.9517C22.8441 21.9736 23.0067 21.9628 23.162 21.9197C23.3802 21.8609 23.5843 21.7588 23.7622 21.6196C24.0367 21.3993 24.1867 21.1472 24.5794 21.1631L26.1755 21.4377L27.2034 20.48L24.2538 20.5151L22.4406 20.962C22.1208 20.9815 21.7998 20.9676 21.4829 20.9205Z" fill="#1B1934"/>
<path d="M26.8234 16.2662C26.8083 17.6462 26.2711 18.9693 25.3198 19.9692C24.8469 20.4809 24.2739 20.89 23.6364 21.1711C22.9988 21.4522 22.3104 21.5995 21.6136 21.6036C20.8646 21.6317 20.1189 21.4911 19.4315 21.1921C18.7441 20.8932 18.1327 20.4436 17.6425 19.8766C16.7726 18.8036 16.3071 17.4591 16.3273 16.0779H16.1549C16.1348 17.5016 16.6162 18.8871 17.5148 19.9916C18.0192 20.5799 18.6495 21.0473 19.359 21.3589C20.0685 21.6706 20.8391 21.8186 21.6136 21.792C22.3339 21.7886 23.0457 21.6369 23.7048 21.3464C24.3638 21.0559 24.956 20.6327 25.4443 20.1033C26.4288 19.0695 26.9834 17.7001 26.9957 16.2726L26.8234 16.2662Z" fill="#8F90A0"/>
<path d="M7.0542 30.2674C7.0542 30.2674 7.19147 30.7845 7.48515 30.6121L7.74372 30.4749C7.82963 30.4282 7.90367 30.3624 7.96014 30.2826C8.01661 30.2028 8.054 30.1111 8.06942 30.0146C8.08484 29.918 8.07789 29.8192 8.04909 29.7258C8.0203 29.6324 7.97043 29.5468 7.90333 29.4757L7.84587 30.028L7.63838 30.245L7.27766 30.2802L7.0542 30.2674Z" fill="#D7854C"/>
<path d="M18.096 14.1656C18.096 14.1656 17.8374 14.8775 17.6363 15.0116C17.4352 15.1457 17.1096 16.6684 17.598 17.7314C18.0864 18.7944 18.7025 18.6188 19.6187 19.2796C20.5348 19.9404 20.5763 20.2884 20.5763 20.2884C20.6193 20.1674 20.642 20.0401 20.6434 19.9117C20.7197 20.0884 20.762 20.2779 20.7679 20.4703C20.7679 20.7608 21.3169 19.2126 21.0871 17.8942C20.8573 16.5758 20.0337 15.1872 19.7496 14.9318C19.5576 14.7351 19.4249 14.4884 19.3665 14.2199L18.9611 13.9294L18.6131 13.7858" fill="#454560"/>
<path d="M29.4697 31.5985H29.4346L29.4697 31.6272C28.5312 31.7869 27.5863 31.905 26.6478 31.9943L25.9774 32.0901C25.9774 32.0901 24.1611 35.1994 22.865 35.7197C22.5715 35.7749 22.273 35.7995 21.9744 35.7931C20.4749 35.7517 19.0018 35.3881 17.6553 34.7269L18.0607 34.9919L21.6264 37.2839L29.1729 32.3551L29.5591 32.2497C29.7834 32.1455 30.0176 32.0643 30.2582 32.0071L29.4697 31.6081" fill="#6B0810"/>
<path d="M16.8765 34.3439L18.0767 34.9983L17.6713 34.7333C17.4128 34.6152 17.1478 34.4875 16.8765 34.3439Z" fill="#922F45"/>
<path d="M30.2582 32.0071C30.0172 32.0673 29.783 32.1518 29.5591 32.2593L30.3284 32.0454L30.2582 32.0071Z" fill="#922F45"/>
<path d="M21.0649 17.8943C20.8287 16.5727 20.0338 15.1873 19.7465 14.9319C19.5546 14.7352 19.4218 14.4885 19.3634 14.22L18.958 13.9295L18.6196 13.7891C19.0594 14.5378 19.3489 15.3652 19.472 16.2247C19.6188 17.7442 19.2549 18.338 19.0123 18.4848C18.8916 18.5701 18.7765 18.6628 18.6675 18.7626C19.0041 18.9007 19.3251 19.074 19.6252 19.2797C20.5414 19.9373 20.5829 20.2885 20.5829 20.2885C20.6259 20.1675 20.6485 20.0402 20.6499 19.9118C20.7263 20.0885 20.7685 20.278 20.7744 20.4704C20.7489 20.7609 21.3011 19.2127 21.0649 17.8943Z" fill="#1B1934"/>
<path d="M29.4348 31.6049L26.6479 32.0071C27.5865 31.9177 28.5314 31.7996 29.4699 31.64L29.4348 31.6112" fill="#131127"/>
<path d="M28.1131 24.3202C28.1131 24.3202 26.7724 26.5324 24.9401 26.3696C24.9401 26.3696 22 25.9897 20.3879 26.3696C20.3879 26.3696 18.2715 27.0623 16.8765 26.8229L23.3791 28.5371L27.6982 26.791L27.3151 26.3632C27.3151 26.3632 28.11 25.795 28.1131 24.3202Z" fill="#1B1934"/>
<path d="M18.3735 32.0519C18.3735 32.0519 21.8275 33.7821 27.3597 31.8795L28.3173 30.9921L21.387 30.842L18.3735 32.0519Z" fill="#1B1934"/>
<path d="M23.1621 9.8147C23.183 9.99245 23.2709 10.1555 23.408 10.2706C23.545 10.3857 23.7208 10.4442 23.8995 10.434C24.0821 10.4581 24.2673 10.4151 24.4206 10.3129C24.5738 10.2108 24.6847 10.0564 24.7327 9.87854C24.6357 10.0007 24.5092 10.0961 24.3651 10.1558C24.221 10.2156 24.0641 10.2377 23.9091 10.2201C23.7595 10.2268 23.6109 10.1926 23.4793 10.1212C23.3476 10.0498 23.238 9.9438 23.1621 9.8147Z" fill="#464F5E"/>
<path d="M36.2374 33.7661C35.184 36.0358 30.3158 37.3127 25.6456 37.916C25.087 37.9894 24.5954 38.0501 24.1484 38.1012C24.7294 38.6853 25.1572 39.5983 25.0231 41.0412L33.6102 40.8114C34.0818 40.7932 34.5374 40.6358 34.9197 40.3592C35.302 40.0826 35.5939 39.699 35.7586 39.2568C35.7586 39.2568 38.4816 36.1571 36.2374 33.7661Z" fill="#9E334A"/>
<path d="M19.3632 14.22C19.3482 14.0789 19.2815 13.9483 19.176 13.8534C19.0705 13.7585 18.9337 13.706 18.7918 13.706C18.6414 13.6835 18.4881 13.7183 18.3622 13.8034C18.2363 13.8885 18.1469 14.0178 18.1118 14.1657C18.295 14.0266 18.5203 13.9545 18.7503 13.9614C18.9681 14.0112 19.1755 14.0987 19.3632 14.22Z" fill="#F9B450"/>
<path d="M18.2044 9.30393C18.2044 9.30393 18.4182 9.17943 19.6153 8.39734C20.3387 7.91491 20.8574 7.18123 21.071 6.33834C21.071 6.33834 21.138 7.06617 21.4349 7.28005C21.7318 7.49393 22.4149 7.84189 22.4149 8.20899C22.4149 8.20899 22.7118 7.22898 22.2553 6.75653C22.2553 6.75653 22.7565 7.60885 23.3279 7.7142C23.8993 7.81954 24.7708 8.54737 24.8123 8.85702C24.8538 9.16666 24.7293 9.687 25.0453 10.1148C25.1664 9.61165 25.3453 9.12425 25.5784 8.66229C25.8338 8.29838 26.003 6.36069 25.1826 5.63286C24.3622 4.90503 23.446 4.30808 22.8714 4.35597C22.2968 4.40385 22.134 4.62411 21.5754 4.4645C21.0167 4.30489 19.51 4.52835 18.7917 4.93376C18.0735 5.33917 17.5883 6.39261 17.451 7.65993C17.3137 8.92725 17.6138 9.16986 17.6138 9.16986L18.2044 9.30393Z" fill="#454560"/>
<path d="M25.1765 5.64568C24.3529 4.91785 23.4399 4.3209 22.8653 4.36878C22.6325 4.39981 22.4021 4.44674 22.1758 4.50924C22.6596 4.90457 23.0032 5.44521 23.1558 6.05109C23.2418 6.57085 23.2035 7.1036 23.0441 7.60571C23.1293 7.65987 23.2232 7.69876 23.3218 7.72063C23.89 7.84194 24.7647 8.5538 24.8062 8.86345C24.8477 9.1731 24.7232 9.69343 25.0392 10.1212C25.1603 9.61808 25.3392 9.13068 25.5723 8.66872C25.8341 8.31119 26.0033 6.37351 25.1765 5.64568Z" fill="#1B1934"/>
<path d="M22.4147 8.20904C22.4115 7.96628 22.3297 7.73109 22.1817 7.53867C21.9582 7.3216 21.9582 6.35435 22.2423 6.12451C22.2423 6.12451 22.3062 6.88746 22.5041 7.10772C22.702 7.32799 22.4147 8.20904 22.4147 8.20904Z" fill="#1B1934"/>
<path d="M34.1721 20.448C33.7584 20.5375 33.3502 20.6505 32.9494 20.7864C32.7579 20.8917 29.1603 25.5332 28.7772 25.894C28.3941 26.2547 27.8706 28.2945 29.2241 29.0575C30.5776 29.8204 31.4108 29.0575 31.5672 28.6935C31.7236 28.3296 33.3421 24.7256 33.2591 24.3202C33.1761 23.9148 33.2367 23.0816 33.3357 23.0114C33.4347 22.9411 34.5807 21.9483 34.5807 21.9483" fill="#D7854C"/>
<path d="M36.6684 23.2381L37.9038 23.4424C37.9892 23.4563 38.0709 23.487 38.1444 23.5325C38.2179 23.5781 38.2817 23.6378 38.3321 23.7081C38.3825 23.7783 38.4185 23.8579 38.4382 23.9421C38.4578 24.0263 38.4606 24.1136 38.4465 24.1989L38.2933 25.1247C38.2793 25.21 38.2487 25.2918 38.2031 25.3653C38.1575 25.4388 38.0978 25.5025 38.0275 25.5529C37.9573 25.6034 37.8777 25.6394 37.7935 25.659C37.7093 25.6787 37.622 25.6815 37.5367 25.6673L36.1225 25.4343C36.0367 25.421 35.9546 25.3904 35.881 25.3443C35.8075 25.2982 35.7441 25.2376 35.6948 25.1662L35.3085 24.6331C35.2537 24.5554 35.2162 24.4669 35.1986 24.3735C35.1809 24.2801 35.1835 24.184 35.2062 24.0917C35.2289 23.9993 35.2712 23.913 35.3301 23.8384C35.3891 23.7639 35.4633 23.7028 35.5479 23.6594L36.263 23.2987C36.3887 23.2373 36.5302 23.2161 36.6684 23.2381Z" fill="#D1435B"/>
<path d="M35.8449 21.0291C36.1794 21.5138 36.4248 22.0543 36.5696 22.6252C36.7771 23.5158 35.5225 24.3905 35.347 24.3139C35.1714 24.2373 34.3542 23.7552 34.2616 23.4488C34.169 23.1423 34.4819 23.0593 34.6511 23.0593C34.8349 23.0712 35.0174 23.0979 35.1969 23.1391C35.1969 23.1391 34.2393 22.9955 34.1978 22.4177" fill="#D7854C"/>
<path d="M35.835 26.7814L37.0608 29.1597C37.1432 29.1616 37.2252 29.1471 37.3019 29.1169C37.3787 29.0868 37.4486 29.0416 37.5077 28.9841L36.084 26.6857" fill="white"/>
<path d="M34.2518 25.8876C34.2518 25.8876 34.9605 27.2411 35.2095 27.4422C35.4585 27.6433 37.1025 26.5899 37.144 26.4016C37.1855 26.2132 36.2374 24.5692 36.0491 24.582C35.8607 24.5948 34.0443 25.4982 34.2518 25.8876Z" fill="#68697F"/>
<path d="M35.9115 26.261C35.6386 26.2209 35.3764 26.1269 35.1401 25.9844C34.9039 25.8419 34.6984 25.6538 34.5357 25.431C34.3186 25.6066 34.1877 25.779 34.2516 25.9003C34.2516 25.9003 34.9602 27.2538 35.2092 27.4549C35.4582 27.656 37.1022 26.6026 37.1437 26.4142C37.1356 26.3269 37.1095 26.2421 37.0671 26.1652C36.6905 26.2643 36.2994 26.2967 35.9115 26.261Z" fill="#454560"/>
<path d="M34.3411 23.3657C34.156 23.4395 33.9968 23.5664 33.8837 23.7305C33.7706 23.8947 33.7086 24.0886 33.7057 24.2879C33.7027 24.4872 33.7589 24.6829 33.867 24.8503C33.9752 25.0178 34.1305 25.1494 34.3134 25.2286C34.4963 25.3078 34.6986 25.3311 34.8947 25.2954C35.0908 25.2598 35.272 25.1668 35.4153 25.0283C35.5586 24.8898 35.6577 24.712 35.7 24.5172C35.7424 24.3224 35.7261 24.1195 35.6532 23.934C35.6046 23.8103 35.532 23.6975 35.4397 23.602C35.3474 23.5064 35.2371 23.4301 35.1152 23.3773C34.9933 23.3245 34.8622 23.2963 34.7293 23.2943C34.5965 23.2923 34.4646 23.3166 34.3411 23.3657ZM35.0019 25.0353C34.8575 25.0918 34.6995 25.1042 34.548 25.071C34.3964 25.0379 34.2581 24.9605 34.1505 24.8488C34.0428 24.7371 33.9707 24.5961 33.9431 24.4434C33.9156 24.2907 33.9339 24.1333 33.9957 23.9911C34.0575 23.8488 34.16 23.728 34.2904 23.6439C34.4208 23.5599 34.5731 23.5163 34.7282 23.5187C34.8833 23.5212 35.0343 23.5695 35.1619 23.6576C35.2896 23.7457 35.3883 23.8696 35.4457 24.0138C35.522 24.2081 35.5182 24.4248 35.435 24.6163C35.3518 24.8078 35.1961 24.9585 35.0019 25.0353Z" fill="#68697F"/>
<path d="M32.9045 22.1878C32.9045 22.1878 32.6938 23.3881 32.9045 23.8828C33.1152 24.3776 33.9611 24.6075 34.1814 24.5213C34.4016 24.4351 34.5293 24.2436 34.4112 24.0872C34.2931 23.9307 33.7249 23.4487 33.7025 23.3082C33.8106 22.987 33.9785 22.6891 34.1973 22.4304C34.5677 22.3982 34.938 22.4928 35.2476 22.6985C35.4455 22.9092 34.6091 24.4191 34.7049 24.5788C34.8007 24.7384 35.1486 24.898 35.3146 24.6745C35.4806 24.4511 36.1861 23.3976 36.0456 22.6953C35.9052 21.993 36.3936 22.1239 36.0456 21.3227C35.6977 20.5214 33.8111 20.2533 33.5876 20.365C33.3642 20.4767 32.1224 21.0737 32.9045 22.1878Z" fill="#F1AF6D"/>
<path d="M29.0068 28.3264C29.1888 28.588 29.4265 28.8061 29.7027 28.9649C30.0367 29.0596 30.3903 29.0596 30.7243 28.9649C30.8009 28.9202 31.085 28.4382 31.0435 28.4222C31.002 28.4062 29.9645 28.2402 29.9645 28.2402L29.0068 28.3264Z" fill="#F1AF6D"/>
<path d="M37.888 16.6653C38.1338 16.2631 38.3572 15.8385 38.6062 15.4363C38.6956 15.2575 38.8073 15.2129 38.9638 15.3246C39.1202 15.4363 39.3883 15.5704 39.6022 15.7045C39.7586 15.7938 39.781 15.8832 39.6916 16.0237C39.2234 16.8515 38.7531 17.6794 38.2806 18.5072C38.2442 18.5878 38.1913 18.66 38.1255 18.7191C38.0597 18.7782 37.9823 18.8229 37.8983 18.8506C37.8142 18.8782 37.7254 18.888 37.6373 18.8795C37.5493 18.8709 37.464 18.8442 37.3868 18.8009C37.3103 18.7564 37.2439 18.6965 37.1918 18.625C37.1397 18.5535 37.103 18.4719 37.0841 18.3855C37.0652 18.299 37.0644 18.2096 37.0819 18.1228C37.0994 18.0361 37.1348 17.9539 37.1857 17.8816C37.4187 17.473 37.6645 17.0707 37.888 16.6653Z" fill="#FFEBD0"/>
<path d="M33.7475 18.5677C33.6909 18.663 33.6106 18.7419 33.5143 18.7968C33.4181 18.8516 33.3092 18.8804 33.1984 18.8804C33.0876 18.8804 32.9788 18.8516 32.8825 18.7968C32.7862 18.7419 32.7059 18.663 32.6494 18.5677C32.2695 17.9293 31.8896 17.2908 31.5321 16.6524C31.4203 16.4513 31.3054 16.2502 31.1937 16.0714C31.082 15.8927 31.1267 15.8256 31.2607 15.7522C31.5097 15.6181 31.7332 15.484 31.979 15.3276C32.1131 15.2606 32.2024 15.2829 32.2695 15.3947C32.7611 16.2661 33.2782 17.1185 33.7698 17.9899C33.8099 18.0817 33.8287 18.1813 33.8249 18.2814C33.821 18.3815 33.7945 18.4794 33.7475 18.5677Z" fill="#FFEBD0"/>
<path d="M39.4327 21.859C39.4823 21.7526 39.5612 21.6625 39.6601 21.5991C39.759 21.5358 39.8739 21.502 39.9913 21.5015C40.949 21.5015 41.9067 21.5015 42.9026 21.4791C43.0814 21.4791 43.1484 21.5462 43.1484 21.7249V22.5326C43.1484 22.689 43.0814 22.756 42.925 22.756C41.9386 22.756 40.9554 22.7784 39.969 22.756C39.8627 22.7586 39.7576 22.733 39.6645 22.6817C39.5714 22.6304 39.4936 22.5553 39.439 22.464C39.3845 22.3728 39.3552 22.2687 39.354 22.1624C39.3529 22.0561 39.3801 21.9514 39.4327 21.859Z" fill="#FFEBD0"/>
<path d="M36.0073 17.9612C35.9336 18.0785 35.8249 18.1696 35.6966 18.2217C35.5683 18.2739 35.4269 18.2844 35.2923 18.2517C35.1578 18.2155 35.0389 18.1364 34.9536 18.0263C34.8683 17.9162 34.8213 17.7813 34.8198 17.642V14.769C34.8198 14.5679 34.8645 14.4785 35.0912 14.4785C35.3178 14.4785 35.5828 14.4785 35.8286 14.4785C35.985 14.4785 36.052 14.5456 36.052 14.702V17.6133C36.0594 17.7311 36.0443 17.8492 36.0073 17.9612Z" fill="#FFEBD0"/>
<path d="M39.1201 20.448C39.0126 20.4019 38.9202 20.3263 38.8539 20.23C38.7875 20.1336 38.7498 20.0204 38.7451 19.9035C38.7404 19.7865 38.769 19.6707 38.8275 19.5693C38.8859 19.4679 38.9719 19.3852 39.0754 19.3307C39.6788 18.9732 40.3076 18.6125 40.911 18.2549C41.1344 18.1208 41.3579 18.0091 41.5813 17.8527C41.7154 17.7633 41.8271 17.7857 41.9006 17.9197C42.0378 18.1655 42.1719 18.389 42.3283 18.6348C42.4177 18.7721 42.373 18.8614 42.2389 18.9285C41.3866 19.4201 40.5598 19.9117 39.7075 20.4033C39.6236 20.4651 39.5241 20.502 39.4202 20.5099C39.3164 20.5178 39.2124 20.4964 39.1201 20.448Z" fill="#FFEBD0"/>
</svg>
